<?xml version="1.0" standalone="no"?><!DOCTYPE svg PUBLIC "-//W3C//DTD SVG 1.1//EN" "http://www.w3.org/Graphics/SVG/1.1/DTD/svg11.dtd"><svg t="1555339987123" class="icon" style="" viewBox="0 0 1028 1024" version="1.1" xmlns="http://www.w3.org/2000/svg" p-id="3601" xmlns:xlink="http://www.w3.org/1999/xlink" width="200.78125" height="200"><defs><style type="text/css"></style></defs><path d="M231.876455 577.957358a76.227991 76.227991 0 0 0-28.531048 41.598703 87.117704 87.117704 0 0 0 21.779426 79.059316 150.278039 150.278039 0 0 0 90.820206 38.549584 241.098245 241.098245 0 0 0 146.357742-50.528268 323.424474 323.424474 0 0 0 69.911957-69.258574c-59.022244-30.491196-132.418909-64.031512-211.042637-60.764599a208.864694 208.864694 0 0 0-89.949028 21.779426z m747.034308 134.596852a510.291949 510.291949 0 1 0-56.190919 98.443005c-87.117704-43.558852-231.297503-114.777574-319.939766-158.118632a394.643197 394.643197 0 0 1-175.542172 117.6089 252.64134 252.64134 0 0 1-126.320671 9.582947 167.265991 167.265991 0 0 1-89.731234-47.261354 169.879522 169.879522 0 0 1-27.006488-37.460613l1.088971 3.04912a90.820206 90.820206 0 0 1-7.840593-18.076923 85.375349 85.375349 0 0 1-3.266914-18.076924 92.998149 92.998149 0 0 1 0-12.849861 93.433737 93.433737 0 0 1 1.742354-23.957369 122.182579 122.182579 0 0 1 34.847081-65.338277 203.637632 203.637632 0 0 1 147.664508-50.09268A779.267858 779.267858 0 0 1 569.457557 557.484698a747.252102 747.252102 0 0 0 41.598703-120.222431h-304.911962V404.375334h156.376277v-65.338278H273.257364v-33.322522h189.263211v-65.338277c0-8.929565 1.742354-16.552364 16.552364-16.552364h74.050048v81.890641h205.815575v32.886933h-206.033369v65.338278h164.65246a645.759978 645.759978 0 0 1-68.169603 182.947177c114.777574 40.945321 275.945326 104.105656 329.522713 125.231699z m0 0" p-id="3602"></path></svg>