<?xml version="1.0" standalone="no"?><!DOCTYPE svg PUBLIC "-//W3C//DTD SVG 1.1//EN" "http://www.w3.org/Graphics/SVG/1.1/DTD/svg11.dtd"><svg t="1554278095893" class="icon" style="" viewBox="0 0 1024 1024" version="1.1" xmlns="http://www.w3.org/2000/svg" p-id="2580" xmlns:xlink="http://www.w3.org/1999/xlink" width="200" height="200"><defs><style type="text/css"></style></defs><path d="M770.56 972.8H279.04c-38.4 0-69.12-30.72-69.12-66.56V494.08c0-17.92 12.8-25.6 40.96-43.52 56.32-38.4 176.64-117.76 176.64-266.24C424.96 94.72 460.8 51.2 532.48 51.2c53.76 0 99.84 38.4 112.64 92.16l2.56 15.36c5.12 25.6 7.68 51.2 7.68 74.24 0 43.52-5.12 84.48-12.8 122.88-2.56 5.12 2.56 10.24 2.56 12.8 2.56 5.12 7.68 7.68 15.36 7.68h202.24c35.84 0 66.56 15.36 89.6 43.52 20.48 25.6 28.16 58.88 20.48 92.16l-89.6 378.88c-15.36 46.08-58.88 81.92-112.64 81.92zM261.12 504.32v401.92c0 10.24 7.68 15.36 17.92 15.36h494.08c28.16 0 53.76-17.92 58.88-46.08L921.6 496.64c5.12-17.92 0-35.84-10.24-48.64-12.8-15.36-28.16-23.04-48.64-23.04h-202.24c-20.48 0-40.96-10.24-53.76-25.6s-17.92-35.84-12.8-56.32c7.68-35.84 10.24-71.68 10.24-112.64 0-20.48-2.56-43.52-5.12-64l-5.12-12.8c-7.68-30.72-33.28-51.2-61.44-51.2-28.16 0-56.32 5.12-56.32 79.36 0 176.64-138.24 271.36-197.12 309.76-7.68 5.12-12.8 7.68-17.92 12.8z m-5.12 2.56zM76.8 934.4c-15.36 0-25.6-10.24-25.6-25.6V537.6c0-15.36 10.24-25.6 25.6-25.6s25.6 10.24 25.6 25.6v371.2c0 12.8-10.24 25.6-25.6 25.6z" p-id="2581"></path></svg>