<?xml version="1.0" standalone="no"?><!DOCTYPE svg PUBLIC "-//W3C//DTD SVG 1.1//EN" "http://www.w3.org/Graphics/SVG/1.1/DTD/svg11.dtd"><svg t="1554792944087" class="icon" style="" viewBox="0 0 1024 1024" version="1.1" xmlns="http://www.w3.org/2000/svg" p-id="2083" xmlns:xlink="http://www.w3.org/1999/xlink" width="200" height="200"><defs><style type="text/css"></style></defs><path d="M693.248 316.258462a27.569231 27.569231 0 0 1-27.569231-27.569231V135.010462a27.569231 27.569231 0 0 1 55.138462 0v153.678769a27.569231 27.569231 0 0 1-27.569231 27.569231zM330.752 316.258462a27.569231 27.569231 0 0 1-27.569231-27.569231V135.010462a27.569231 27.569231 0 0 1 55.138462 0v153.678769a27.569231 27.569231 0 0 1-27.569231 27.569231zM866.855385 431.655385h-709.71077a27.569231 27.569231 0 1 1 0-55.138462h709.632a27.569231 27.569231 0 0 1 0.07877 55.138462z" p-id="2084"></path><path d="M812.425846 916.48H211.574154a82.077538 82.077538 0 0 1-81.998769-81.998769V266.318769c0-45.213538 36.785231-81.998769 81.998769-81.998769h600.772923c45.213538 0 81.998769 36.785231 81.998769 81.998769v568.162462a81.998769 81.998769 0 0 1-81.92 81.998769zM211.574154 239.458462a26.939077 26.939077 0 0 0-26.860308 26.939076v568.162462c0 14.808615 12.051692 26.939077 26.860308 26.939077h600.772923a26.939077 26.939077 0 0 0 26.860308-26.939077V266.318769a26.939077 26.939077 0 0 0-26.860308-26.939077H211.574154z" p-id="2085"></path></svg>