<?xml version="1.0" standalone="no"?><!DOCTYPE svg PUBLIC "-//W3C//DTD SVG 1.1//EN" "http://www.w3.org/Graphics/SVG/1.1/DTD/svg11.dtd"><svg t="1554278075612" class="icon" style="" viewBox="0 0 1024 1024" version="1.1" xmlns="http://www.w3.org/2000/svg" p-id="1960" xmlns:xlink="http://www.w3.org/1999/xlink" width="200" height="200"><defs><style type="text/css"></style></defs><path d="M505.6 28.16C246.912 28.16 37.12 237.952 37.12 496.64s209.792 468.48 468.48 468.48 468.48-209.792 468.48-468.48S764.288 28.16 505.6 28.16z m283.648 716.928L755.2 779.136c-13.952 13.952-36.736 13.952-50.688 0L506.752 581.248 308.864 779.136c-13.952 13.952-36.736 13.952-50.688 0l-34.048-34.048c-13.952-13.952-13.952-36.736 0-50.688L422.016 496.64 224.256 298.88c-14.08-13.952-14.08-36.736-0.128-50.688l34.048-34.048c13.952-13.952 36.736-13.952 50.688 0l197.76 197.76 197.76-197.76c13.952-13.952 36.736-13.952 50.688 0l34.048 34.048c14.08 13.952 14.08 36.736 0 50.688L591.36 496.64l197.888 197.76c13.952 13.952 13.952 36.736 0 50.688z" fill="#666666" p-id="1961"></path></svg>