<?xml version="1.0" standalone="no"?><!DOCTYPE svg PUBLIC "-//W3C//DTD SVG 1.1//EN" "http://www.w3.org/Graphics/SVG/1.1/DTD/svg11.dtd"><svg t="1554278092680" class="icon" style="" viewBox="0 0 1024 1024" version="1.1" xmlns="http://www.w3.org/2000/svg" p-id="2456" xmlns:xlink="http://www.w3.org/1999/xlink" width="200" height="200"><defs><style type="text/css"></style></defs><path d="M557 591.90714248l137.82857167-150.68571415c14.14285752-15.42857168 36.9-15.49285752 51.17142833 0.12857167 14.14285752 15.42857168 14.01428584 40.82142832 0.12857168 55.92857168l-205.5214292 224.80714248a34.07142832 34.07142832 0 0 1-31.75714248 10.99285752 34.07142832 34.07142832 0 0 1-31.82142833-10.92857168L271.57142832 497.27857168A42.55714248 42.55714248 0 0 1 271.57142832 441.28571416a34.00714248 34.00714248 0 0 1 51.1714292-0.12857168L467 598.78571416V107.32142832a45 45 0 1 1 90 0v484.58571416zM152 872h720V556.80714248c0-24.75 19.92857167-44.80714248 45-44.80714248 24.87857168 0 45 20.50714248 45 44.80714248v360.38571504a44.55 44.55 0 0 1-44.61428584 44.80714248H106.61428584a44.35714248 44.35714248 0 0 1-31.5-13.05 45.9 45.9 0 0 1-13.11428584-31.75714248V556.80714248C62 532.05714248 81.92857168 512 107 512c24.87857168 0 45 20.50714248 45 44.80714248V872z" p-id="2457"></path></svg>