<?xml version="1.0" standalone="no"?><!DOCTYPE svg PUBLIC "-//W3C//DTD SVG 1.1//EN" "http://www.w3.org/Graphics/SVG/1.1/DTD/svg11.dtd"><svg t="1555340143712" class="icon" style="" viewBox="0 0 1024 1024" version="1.1" xmlns="http://www.w3.org/2000/svg" p-id="3430" xmlns:xlink="http://www.w3.org/1999/xlink" width="200" height="200"><defs><style type="text/css"></style></defs><path d="M512 512m-146.285714 0a146.285714 146.285714 0 1 0 292.571428 0 146.285714 146.285714 0 1 0-292.571428 0Z" p-id="3431"></path><path d="M512 164.571429C279.771429 164.571429 80.457143 309.028571 0 512c80.457143 202.971429 279.771429 347.428571 512 347.428571s431.542857-144.457143 512-347.428571C943.542857 309.028571 744.228571 164.571429 512 164.571429z m0 579.657142c-129.828571 0-235.885714-104.228571-235.885714-232.228571 0-128 106.057143-232.228571 235.885714-232.228571 129.828571 0 235.885714 104.228571 235.885714 232.228571 0 128-106.057143 232.228571-235.885714 232.228571z" p-id="3432"></path></svg>