<?xml version="1.0" standalone="no"?><!DOCTYPE svg PUBLIC "-//W3C//DTD SVG 1.1//EN" "http://www.w3.org/Graphics/SVG/1.1/DTD/svg11.dtd"><svg t="1554366437199" class="icon" style="" viewBox="0 0 1024 1024" version="1.1" xmlns="http://www.w3.org/2000/svg" p-id="1162" xmlns:xlink="http://www.w3.org/1999/xlink" width="200" height="200"><defs><style type="text/css"></style></defs><path d="M532.93113125 512.29553563c-5.49284438 3.99070313-9.10385344 5.99682-11.93296594 8.76330187C388.82250781 649.700795 256.74373063 778.44159031 124.54263031 907.06397563 110.95877656 920.27596344 103.75143688 935.18287437 107.93296625 954.12746187c7.73871563 35.03657531 50.47290563 49.55302781 78.80122312 26.70972469 3.11584125-2.5061775 5.91266063-5.39792062 8.77798219-8.18984718A8683190.32464844 8683190.32464844 0 0 0 628.41149844 550.94801187c26.24782875-25.5706425 26.26837875-51.72452625 0.04110093-77.27363906C483.43877656 332.39486281 338.36428156 191.18483187 193.48746219 49.78201813 179.11192625 35.75388406 162.69993875 29.5388375 142.99987813 34.44256906c-34.20770625 8.51082562-47.54788969 48.92672813-25.35535219 75.76269094 2.74397531 3.31743094 5.96256844 6.28159031 9.06177375 9.30152906 131.39082562 128.01174281 262.7806725 256.02544312 394.23902156 383.97455625 2.84574938 2.76452625 6.4606725 4.79217094 11.99070281 8.81419032h-0.00489281z" p-id="1163"></path><path d="M802.79584062 512.29553563c-5.47229344 3.99070313-9.07155937 5.99682-11.88990749 8.76330187C659.19999969 649.700795 527.58996969 778.44159031 395.85859344 907.06397563c-13.5359025 13.21198781-20.71779844 28.1198775-16.55094844 47.06348624 7.71131531 35.03657531 50.2938225 49.55302781 78.52134562 26.70972469 3.10507687-2.5061775 5.89113188-5.39792062 8.74666688-8.18984719A8666678.68966406 8666678.68966406 0 0 0 897.93761469 550.94801187c26.1548625-25.5706425 26.17639125-51.72452625 0.04110094-77.27363906-144.49810406-141.27853219-289.05688031-282.48856312-433.41896063-423.89137594-14.32562719-14.028135-30.67889906-20.24318063-50.30850094-15.33944906-34.08636094 8.51082562-47.37957187 48.92672813-25.26532125 75.76269094 2.73321094 3.31743094 5.94103969 6.28159031 9.03045844 9.30152906 130.92305813 128.01174281 261.84611625 256.02544312 392.83767563 383.97455625 2.83596375 2.76452625 6.43718625 4.79217094 11.94764531 8.81418938h-0.00489281z" p-id="1164"></path></svg>