<?xml version="1.0" standalone="no"?><!DOCTYPE svg PUBLIC "-//W3C//DTD SVG 1.1//EN" "http://www.w3.org/Graphics/SVG/1.1/DTD/svg11.dtd"><svg t="1554366108710" class="icon" style="" viewBox="0 0 1024 1024" version="1.1" xmlns="http://www.w3.org/2000/svg" p-id="1131" xmlns:xlink="http://www.w3.org/1999/xlink" width="200" height="200"><defs><style type="text/css"></style></defs><path d="M221.69052031 512.29553563c5.47327219 3.99070313 9.07155937 5.99682 11.8899075 8.76330187C365.28636125 649.700795 496.89345594 778.44159031 628.62189594 907.06397563c13.5359025 13.21198781 20.71779844 28.1198775 16.55094843 47.06348624-7.71131531 35.03657531-50.29284375 49.55302781-78.51938906 26.70972469-3.10507687-2.5061775-5.89113188-5.39792062-8.74666593-8.18984719A8666814.38434219 8666814.38434219 0 0 1 126.55168156 550.94801187c-26.15388375-25.5706425-26.1754125-51.72452625-0.04110094-77.27363906C271.00672813 332.39486281 415.56354781 191.18483187 559.92366969 49.78201813 574.24733937 35.75388406 590.60061125 29.5388375 610.23021406 34.44256906c34.08440344 8.51082562 47.37859313 48.92672813 25.2643425 75.76269094-2.73321094 3.31743094-5.94006094 6.28159031-9.02947968 9.30152906-130.92110062 128.01174281-261.84220219 256.02544312-392.83082625 383.97455625-2.83596375 2.76452625-6.43718625 4.79217094-11.94764532 8.81419032h0.00489281z" p-id="1132"></path><path d="M492.10226281 512.29553563c5.47327219 3.99070313 9.07155937 5.99682 11.88990844 8.76330187C635.69614719 649.700795 767.30519844 778.44159031 899.03363938 907.06397563c13.5359025 13.21198781 20.71681969 28.1198775 16.55094749 47.06348624-7.71131531 35.03657531-50.29284375 49.55302781-78.51938812 26.70972469-3.10605469-2.5061775-5.89113188-5.39792062-8.74764562-8.18984719A8666814.38434219 8666814.38434219 0 0 1 396.96244625 550.94801187c-26.152905-25.5706425-26.17443469-51.72452625-0.04012219-77.27363906C541.41847063 332.39486281 685.97431156 191.18483187 830.33443438 49.78201813c14.32464844-14.028135 30.67792031-20.24318063 50.30654437-15.33944907 34.08636094 8.51082562 47.37859313 48.92672813 25.26532125 75.76269094-2.73418969 3.31743094-5.94103969 6.28159031-9.02948062 9.30152906C765.95474 247.51853188 635.03461813 375.53223219 504.04403656 503.48134531c-2.834985 2.76452625-6.43718625 4.79217094-11.94666656 8.81419031h0.00391406z" p-id="1133"></path></svg>