<?xml version="1.0" standalone="no"?><!DOCTYPE svg PUBLIC "-//W3C//DTD SVG 1.1//EN" "http://www.w3.org/Graphics/SVG/1.1/DTD/svg11.dtd"><svg t="1554278041466" class="icon" style="" viewBox="0 0 1024 1024" version="1.1" xmlns="http://www.w3.org/2000/svg" p-id="1334" xmlns:xlink="http://www.w3.org/1999/xlink" width="200" height="200"><defs><style type="text/css"></style></defs><path d="M512 6.4C236.8 6.4 6.4 236.8 6.4 512s230.4 505.6 505.6 505.6 505.6-230.4 505.6-505.6S787.2 6.4 512 6.4zM384 812.8c-83.2-38.4 19.2-230.4 64-313.6s-44.8-38.4-96 25.6c0 0 44.8-166.4 179.2-160 134.4 6.4 44.8 153.6-6.4 288s64 44.8 89.6-6.4c0 12.8-64 243.2-230.4 166.4z m204.8-473.6C544 339.2 512 307.2 512 262.4S550.4 192 588.8 192s76.8 32 76.8 76.8c6.4 32-25.6 70.4-76.8 70.4z" p-id="1335"></path></svg>