<?xml version="1.0" standalone="no"?><!DOCTYPE svg PUBLIC "-//W3C//DTD SVG 1.1//EN" "http://www.w3.org/Graphics/SVG/1.1/DTD/svg11.dtd"><svg t="1554278078840" class="icon" style="" viewBox="0 0 1024 1024" version="1.1" xmlns="http://www.w3.org/2000/svg" p-id="2084" xmlns:xlink="http://www.w3.org/1999/xlink" width="200" height="200"><defs><style type="text/css"></style></defs><path d="M350.749974 512.315642c5.70724 4.256268 9.45946 6.396024 12.399331 9.346905 137.348129 137.218447 274.595938 274.543331 411.969758 411.738533 14.115785 14.093763 21.605544 29.994514 17.259967 50.201692-8.04152 37.371718-52.447885 52.856507-81.884521 28.489711-3.238385-2.673166-6.144-5.7574-9.121797-8.735197a9136800.693372 9136800.693372 0 0 1-449.839407-449.813716c-27.274858-27.274858-27.296879-55.172435-0.04282-82.425271 150.688268-150.696832 301.440153-301.321481 451.986504-452.150442 14.937921-14.963613 31.992354-21.593309 52.462567-16.361979 35.54638 9.077754 49.408918 52.188521 26.347507 80.812808-2.850562 3.538122-6.195384 6.700655-9.41664 9.921911-136.53211 136.545568-273.062996 273.093582-409.666065 409.573085-2.956999 2.948435-6.712889 5.111436-12.459278 9.40196h0.004894z" p-id="2085"></path></svg>