<?xml version="1.0" standalone="no"?><!DOCTYPE svg PUBLIC "-//W3C//DTD SVG 1.1//EN" "http://www.w3.org/Graphics/SVG/1.1/DTD/svg11.dtd"><svg t="1554278099555" class="icon" style="" viewBox="0 0 1024 1024" version="1.1" xmlns="http://www.w3.org/2000/svg" p-id="2704" xmlns:xlink="http://www.w3.org/1999/xlink" width="200" height="200"><defs><style type="text/css"></style></defs><path d="M904.704 418.304h-69.632c-7.168-23.552-16.384-46.592-28.672-68.608l49.152-49.152c10.752-10.24 16.384-24.576 16.384-39.424 0-14.848-5.632-28.672-16.384-39.424L802.816 168.96c-20.992-20.992-58.368-20.992-79.36 0l-49.152 49.152c-21.504-12.288-45.056-22.016-68.608-28.672V119.296c0-30.72-25.088-56.32-56.32-56.32H474.624c-30.72 0-56.32 25.088-56.32 56.32v69.632c-23.552 7.168-46.592 16.384-68.608 28.672l-49.152-49.152c-20.992-20.992-58.368-20.992-79.36 0L167.936 221.184c-22.016 22.016-22.016 57.344 0 79.36l49.152 49.152c-12.288 21.504-22.016 45.056-28.672 68.608H119.296c-14.848 0-28.672 5.632-39.424 16.384-10.752 10.24-16.384 24.576-16.384 39.424v74.752c0 30.72 25.088 56.32 56.32 56.32H189.44c7.168 23.552 16.384 46.592 28.672 68.608l-49.152 49.152c-10.752 10.24-16.384 24.576-16.384 39.424 0 14.848 5.632 28.672 16.384 39.424l52.736 52.736c20.992 20.992 58.368 20.992 79.36 0l49.152-49.152c21.504 12.288 45.056 22.016 68.608 28.672v69.632c0 30.72 25.088 56.32 56.32 56.32h74.24c30.72 0 56.32-25.088 56.32-56.32v-69.632c23.552-7.168 46.592-16.384 68.608-28.672l49.152 49.152c20.992 20.992 58.368 20.992 79.36 0l52.736-52.736c22.016-22.016 22.016-57.344 0-79.36l-49.152-49.152c12.288-21.504 22.016-45.056 28.672-68.608h70.144c14.848 0 28.672-5.632 39.424-16.384 10.752-10.24 16.384-24.576 16.384-39.424V474.112c0-30.72-25.088-55.808-56.32-55.808z m-6.144 129.536c0 5.12-2.048 9.216-5.12 12.8-3.584 3.072-8.192 5.12-12.8 5.12h-78.848c-8.192 0-15.36 5.632-16.896 13.312-6.656 28.16-17.92 55.808-33.28 80.384-4.096 6.656-3.072 15.872 2.56 21.504l56.32 56.32c6.656 6.656 6.656 17.92 0 24.576l-49.664 49.664c-6.656 6.656-18.432 6.656-25.088 0l-56.32-56.32c-5.632-5.632-14.336-6.656-21.504-2.56-25.088 15.36-52.224 26.624-80.384 33.28-8.192 2.048-13.312 9.216-13.312 16.896v78.848c0 9.216-7.68 17.408-17.408 17.408H476.16c-9.216 0-17.408-7.68-17.408-17.408v-78.848c0-8.192-5.632-15.36-13.312-16.896-28.16-6.656-55.296-17.92-80.384-33.28-2.56-2.048-5.632-2.56-9.216-2.56-4.608 0-9.216 2.048-12.288 5.632l-56.32 56.32c-6.656 6.656-18.432 6.656-25.088 0l-49.664-49.664c-3.072-3.584-5.12-7.68-5.12-12.8s2.048-9.216 5.12-12.8l55.808-56.32c5.632-5.632 6.656-14.848 2.56-21.504-15.36-25.088-26.624-52.224-33.28-80.384-2.048-8.192-9.216-13.312-16.896-13.312H142.336c-9.216 0-17.408-7.68-17.408-17.408V476.672c0-5.12 2.048-9.216 5.12-12.8 3.584-3.072 8.192-5.12 12.8-5.12h79.36c8.192 0 15.36-5.632 16.896-13.312 6.656-28.16 17.92-55.296 33.28-80.384 4.096-6.656 3.072-15.872-2.56-21.504l-56.32-56.32c-6.656-6.656-6.656-17.92 0-24.576l49.664-49.664c6.656-6.656 18.432-6.656 25.088 0l56.32 55.808c5.632 5.632 14.336 6.656 21.504 2.56 25.088-15.36 52.224-26.624 80.384-33.28 8.192-2.048 13.312-9.216 13.312-16.896V142.336c0-9.216 7.68-17.408 17.408-17.408h70.144c9.216 0 17.408 7.68 17.408 17.408v78.848c0 8.192 5.632 15.36 13.312 16.896 28.16 6.656 55.808 17.92 80.384 33.28 6.656 4.096 15.872 3.072 21.504-2.56l56.32-56.32c6.656-6.656 18.432-6.656 25.088 0l49.664 49.664c3.072 3.584 5.12 8.192 5.12 12.8 0 5.12-2.048 9.216-5.12 12.8l-56.32 56.32c-5.632 5.632-6.656 14.848-2.56 21.504 15.36 25.088 26.624 52.224 33.28 80.384 2.048 8.192 9.216 13.312 16.896 13.312h78.848c9.216 0 17.408 7.68 17.408 17.408V547.84z" p-id="2705"></path><path d="M512 322.048c-104.96 0-189.952 84.992-189.952 189.952s84.992 189.952 189.952 189.952 189.952-84.992 189.952-189.952-84.992-189.952-189.952-189.952z m0 323.584c-73.728 0-133.632-59.904-133.632-133.632 0-73.728 59.904-133.632 133.632-133.632s133.632 59.904 133.632 133.632-59.904 133.632-133.632 133.632z" p-id="2706"></path></svg>