<?xml version="1.0" standalone="no"?><!DOCTYPE svg PUBLIC "-//W3C//DTD SVG 1.1//EN" "http://www.w3.org/Graphics/SVG/1.1/DTD/svg11.dtd"><svg t="1554278058671" class="icon" style="" viewBox="0 0 1170 1024" version="1.1" xmlns="http://www.w3.org/2000/svg" p-id="1582" xmlns:xlink="http://www.w3.org/1999/xlink" width="228.515625" height="200"><defs><style type="text/css"></style></defs><path d="M1156.827429 867.328L640.926476 33.792c-26.965333-45.056-85.577143-45.056-112.591238 0L12.483048 867.328c-31.50019 51.833905 0 123.904 56.32 123.904H1100.55619c56.32 0 90.063238-72.070095 56.32-123.855238zM584.655238 811.008c-38.278095 0-67.584-29.257143-67.584-67.584 0-38.278095 29.257143-67.584 67.584-67.584 38.278095 0 67.584 29.257143 67.584 67.584 0 38.326857-29.257143 67.584-67.584 67.584z m67.584-202.752c0 13.507048-9.020952 22.528-22.528 22.528h-90.112c-13.507048 0-22.528-9.020952-22.528-22.528V315.392c0-13.507048 9.020952-22.528 22.528-22.528h90.112c13.507048 0 22.528 9.020952 22.528 22.528v292.864z" p-id="1583"></path></svg>